<svg id="Layer_1" data-name="Layer 1" xmlns="http://www.w3.org/2000/svg" xmlns:xlink="http://www.w3.org/1999/xlink" viewBox="0 0 365.54 157.78"><defs><style>.cls-1{fill:url(#linear-gradient);}.cls-2{font-size:63.35px;font-family:Assistant-Bold, Assistant;}.cls-3{font-weight:700;opacity:0.2;}.cls-4{font-size:60.65px;font-family:Assistant-ExtraLight, Assistant;}.cls-5{letter-spacing:-0.04em;}.cls-6{fill:none;stroke:#414142;stroke-miterlimit:10;}.cls-7{font-size:87.61px;fill:#404141;}.cls-7,.cls-8{font-family:JamesFajardo, James Fajardo;}.cls-8{font-size:48.52px;fill:#231f20;}.cls-9{fill:url(#linear-gradient-11);}.cls-10{fill:url(#linear-gradient-12);}.cls-11{fill:url(#linear-gradient-13);}.cls-12{fill:url(#linear-gradient-14);}</style><linearGradient id="linear-gradient" x1="105.64" y1="433.47" x2="352.15" y2="433.47" gradientUnits="userSpaceOnUse"><stop offset="0.02" stop-color="#2f4381"/><stop offset="1" stop-color="#221851"/></linearGradient><linearGradient id="linear-gradient-11" x1="151.5" y1="382.9" x2="160.55" y2="382.9" xlink:href="#linear-gradient"/><linearGradient id="linear-gradient-12" x1="155.8" y1="360.14" x2="182.64" y2="360.14" xlink:href="#linear-gradient"/><linearGradient id="linear-gradient-13" x1="137.18" y1="374.2" x2="152.2" y2="374.2" xlink:href="#linear-gradient"/><linearGradient id="linear-gradient-14" x1="174.42" y1="361.06" x2="174.47" y2="361.06" xlink:href="#linear-gradient"/></defs><title>Logo</title><path class="cls-1" d="M118,425.61a17.54,17.54,0,0,1-6.88-7.25,27.2,27.2,0,0,1,.07-23.06,18.44,18.44,0,0,1,7-7.51,18.82,18.82,0,0,1,9.69-2.6,15.85,15.85,0,0,1,6.87,1.49,18.65,18.65,0,0,1,5.42,3.84l-4.63,5.57a13.33,13.33,0,0,0-3.51-2.5,9.11,9.11,0,0,0-4-.86,9.3,9.3,0,0,0-5.45,1.68,11.13,11.13,0,0,0-3.77,4.82,18.2,18.2,0,0,0-1.36,7.31q0,6.52,2.82,10.27a9.05,9.05,0,0,0,7.63,3.73,10.79,10.79,0,0,0,8.3-4l4.63,5.45a16.67,16.67,0,0,1-13.24,6.08A19.13,19.13,0,0,1,118,425.61Z" transform="translate(-105.64 -342.86)"/><path class="cls-1" d="M166.71,417h-13l-2.79,10.32h-8.86L155.24,386h10.33l13.11,41.37H169.5Zm-1.78-6.72L163.79,406q-.75-2.79-2.28-8.75l-1.2-4.68h-.25q-1.91,8.16-3.36,13.43l-1.14,4.24Z" transform="translate(-105.64 -342.86)"/><path class="cls-1" d="M205.79,427.32,197.56,412h-5.51v15.33h-8.68V386h14.57q7.22,0,11.46,2.95c2.83,2,4.25,5.21,4.25,9.72a13.06,13.06,0,0,1-2,7.45,12,12,0,0,1-5.64,4.46l9.57,16.79Zm-13.74-22.23h5.13a9.36,9.36,0,0,0,5.95-1.62,5.83,5.83,0,0,0,2-4.85,5,5,0,0,0-2-4.43q-2-1.33-6-1.33h-5.13Z" transform="translate(-105.64 -342.86)"/><path class="cls-1" d="M221.76,386h25.59v7.29H230.43v9.06h14.38v7.28H230.43V420H248v7.28H221.76Z" transform="translate(-105.64 -342.86)"/><path class="cls-1" d="M256.28,386h25.59v7.29H265v9.06h14.38v7.28H265V420h17.55v7.28H256.28Z" transform="translate(-105.64 -342.86)"/><path class="cls-1" d="M313.23,427.32,305,412h-5.51v15.33H290.8V386h14.57q7.23,0,11.47,2.95c2.83,2,4.24,5.21,4.24,9.72a13.05,13.05,0,0,1-2,7.45,12,12,0,0,1-5.64,4.46L323,427.32Zm-13.75-22.23h5.13a9.39,9.39,0,0,0,6-1.62,5.83,5.83,0,0,0,2-4.85,5,5,0,0,0-2-4.43c-1.31-.89-3.31-1.33-6-1.33h-5.13Z" transform="translate(-105.64 -342.86)"/><path class="cls-1" d="M225.93,439.86h21.35v1.69H227.87v16.87h16.38v1.69H227.87v19.78h-1.94Z" transform="translate(-105.64 -342.86)"/><path class="cls-1" d="M270.09,465.57H253.77l-5,14.32H246.8l14.31-40h1.7l14.31,40h-2.06Zm-.61-1.69-2.79-8q-3.21-9.17-4.61-13.95h-.24q-1.39,4.79-4.61,13.95l-2.85,8Z" transform="translate(-105.64 -342.86)"/><path class="cls-1" d="M283.79,439.86h1.94v40h-1.94Z" transform="translate(-105.64 -342.86)"/><path class="cls-1" d="M320.06,479.89,308.78,461h-9v18.93h-1.94v-40h11q12.87,0,12.86,10.31a9.85,9.85,0,0,1-2.85,7.46,12.85,12.85,0,0,1-7.94,3.21l11.4,19.05Zm-11.88-20.63c3.76,0,6.62-.75,8.58-2.27s2.94-3.79,2.94-6.82-1-5.28-2.88-6.61-4.8-2-8.64-2h-8.37v17.71Z" transform="translate(-105.64 -342.86)"/><text class="cls-2" transform="translate(0 84.46)"><tspan class="cls-3">CAREER</tspan><tspan class="cls-4"><tspan class="cls-5" x="114.23" y="52.57">F</tspan><tspan x="140.55" y="52.57">AIR</tspan></tspan></text><line class="cls-6" x1="227.99" y1="33.96" x2="227.99" y2="137.26"/><text class="cls-7" transform="matrix(1, -0.01, 0.01, 1, 240.93, 157.04)">2018</text><text class="cls-8" transform="translate(242.41 65.99)">create your <tspan x="0" y="32.35">future</tspan></text><path class="cls-9" d="M160.55,374.25c-2.56,2.71-3.6,6.06-4,9.66a21.6,21.6,0,0,0,.2,6.57c0,.16.07.32.11.48.27.93.18,1.19-.59,1.71h-.78c-.47-.15-.54-.52-.59-1-.23-2.09-.44-4.18-.54-6.29a11.67,11.67,0,0,0-1-3.19,15.72,15.72,0,0,0-1.9-3.8v-.15c.09-.22.07-.48.29-.63a20.81,20.81,0,0,1,3,5.22,2.47,2.47,0,0,0,.17-.92,15.59,15.59,0,0,1,4-8.37l.36-.45a3.87,3.87,0,0,1,1.25,1.06Z" transform="translate(-105.64 -342.86)"/><path class="cls-10" d="M160.55,374.25v-.06c.19,0,.25-.19.35-.3a48.73,48.73,0,0,1,5.11-5.05,1.23,1.23,0,0,1,1.28-.31,9.8,9.8,0,0,0,4.66-.14,15.76,15.76,0,0,0,3.17-1,17.78,17.78,0,0,1-7.33-.13l.39-.29a31.54,31.54,0,0,0,4.92-4.31.44.44,0,0,1,.33-.16,8.44,8.44,0,0,0,5.2-2.13c.09-.07.24-.12.18-.35-.43.16-.85.35-1.29.49a7.77,7.77,0,0,1-3.06.52h0c0-.19.13-.29.21-.42a18.36,18.36,0,0,0,2.36-5.45,9.7,9.7,0,0,0,.4-3,39.08,39.08,0,0,1-1.86,4.18,31,31,0,0,1-2.39,4,13.13,13.13,0,0,1,0-5.15,9.16,9.16,0,0,0-1.19,6.28c0,.21.1.39-.08.58a34.64,34.64,0,0,1-5.21,4.17,21.49,21.49,0,0,1-.35-7.82,17.53,17.53,0,0,0-1.21,4.34,7.71,7.71,0,0,0,.34,4.25c.1.21,0,.29-.15.39-.47.37-1,.73-1.41,1.11a46.29,46.29,0,0,0-4.22,4.3c-.11.11-.16.35-.41.26a11.14,11.14,0,0,1-2.14-2.3,8.32,8.32,0,0,1-.87-7.36,14.78,14.78,0,0,1,7.85-9.23,43.57,43.57,0,0,1,4.33-1.68,15.35,15.35,0,0,0,7.19-5.41q1.35-1.78,2.53-3.69l.3-.46a22.63,22.63,0,0,1,3.15,6.94,27.34,27.34,0,0,1-1.43,18.74,16.93,16.93,0,0,1-5.22,6.6c-3.72,2.83-7.66,2.95-11.75.81A15.48,15.48,0,0,1,161,374.5C160.86,374.4,160.75,374.23,160.55,374.25Z" transform="translate(-105.64 -342.86)"/><path class="cls-11" d="M151.5,378.28v.15c-.18,0-.18.22-.24.34a3.79,3.79,0,0,1-5.38,2,8.75,8.75,0,0,1-4.75-5.09,45.77,45.77,0,0,0-3.93-8.2s0-.06,0-.15a19.65,19.65,0,0,1,2.3-.09,23.29,23.29,0,0,1,7.5,1.13,10.36,10.36,0,0,1,2.23,1.06,6.25,6.25,0,0,1,2.83,6.9c-.07.39-.16.79-.25,1.18-.26,0-.31-.2-.42-.33a20.82,20.82,0,0,0-5.63-4.65.58.58,0,0,0-.54-.11,25.37,25.37,0,0,1,5.9,5.52C151.21,378.05,151.26,378.28,151.5,378.28Z" transform="translate(-105.64 -342.86)"/><path class="cls-12" d="M174.46,361v.07h0l.05,0Z" transform="translate(-105.64 -342.86)"/></svg>